Coordinates
version=1
nRows=28
nColumns=38
inDegrees=no

Units are S.I. units (second, meters, Newtons, ...)
If the header above contains a line with 'inDegrees', this indicates whether rotational values are in degrees (yes) or radians (no).

endheader
time	pelvis_tilt	pelvis_list	pelvis_rotation	pelvis_tx	pelvis_ty	pelvis_tz	hip_flexion_r	hip_adduction_r	hip_rotation_r	knee_angle_r	ankle_angle_r	subtalar_angle_r	mtp_angle_r	hip_flexion_l	hip_adduction_l	hip_rotation_l	knee_angle_l	ankle_angle_l	subtalar_angle_l	mtp_angle_l	lumbar_extension	lumbar_bending	lumbar_rotation	arm_flex_r	arm_add_r	arm_rot_r	elbow_flex_r	pro_sup_r	wrist_flex_r	wrist_dev_r	arm_flex_l	arm_add_l	arm_rot_l	elbow_flex_l	pro_sup_l	wrist_flex_l	wrist_dev_l
1.15	-0.280961	-0.0514595	-0.175806	0.994605	0.991954	-0.34484	0.880807	0.134606	-0.304918	-0.466001	0.118978	0.1	0.00542556	-0.0096653	0.000591785	-0.10836	-1.28994	-0.187793	0.1	-0.0300777	0.0605911	0.128742	-0.018636	-0.900438	-0.2829	-0.359579	1.9242	1.77139	-0.0212143	0.00244308	-0.352207	-0.173018	-0.0924999	2.2672	1.89065	0.0715747	-0.00496239
1.16	-0.27802	-0.0562482	-0.18578	0.993622	0.987438	-0.345499	0.858851	0.139804	-0.321359	-0.473827	0.110741	0.1	0.00542556	0.0326338	-0.0146152	-0.119943	-1.4159	-0.157972	0.1	-0.0300777	0.0499022	0.1391	0.0021365	-0.870267	-0.29592	-0.354588	1.92872	1.7759	-0.0212143	0.00244308	-0.35368	-0.169053	-0.079524	2.20128	1.90433	0.0715747	-0.00496239
1.17	-0.276259	-0.0587485	-0.19631	0.992202	0.982066	-0.346184	0.8426	0.14242	-0.328298	-0.508034	0.117215	0.1	0.00542556	0.0822297	-0.0303505	-0.132205	-1.53805	-0.124386	0.1	-0.0300777	0.0402762	0.14668	0.0259841	-0.834356	-0.312219	-0.346036	1.92833	1.78145	-0.0212143	0.00244308	-0.356395	-0.164837	-0.0668602	2.12984	1.91884	0.0715747	-0.00496239
1.18	-0.275649	-0.0588381	-0.207368	0.990221	0.976122	-0.346847	0.831238	0.143183	-0.324824	-0.563723	0.140376	0.1	0.00542556	0.139332	-0.0462589	-0.14344	-1.65394	-0.0877131	0.1	-0.0300777	0.0314729	0.151044	0.0524587	-0.79205	-0.331149	-0.333489	1.92233	1.78779	-0.0212143	0.00244308	-0.360332	-0.16079	-0.0548274	2.05517	1.93357	0.0715747	-0.00496239
1.19	-0.276022	-0.0566394	-0.218731	0.987606	0.970109	-0.347464	0.823108	0.14296	-0.310896	-0.634035	0.180345	0.1	0.00542556	0.203967	-0.0620442	-0.152116	-1.76126	-0.0489902	0.1	-0.0300777	0.0232103	0.152058	0.0807966	-0.742979	-0.351872	-0.316757	1.91072	1.79456	-0.0212143	0.00244308	-0.365728	-0.157277	-0.0439427	1.97996	1.94743	0.0715747	-0.00496239
1.2	-0.277128	-0.0524671	-0.229898	0.984395	0.96446	-0.348021	0.815917	0.142383	-0.28752	-0.710937	0.235033	0.1	0.00542556	0.275874	-0.077335	-0.15695	-1.85773	-0.0095677	0.1	-0.0300777	0.0152938	0.149767	0.109899	-0.687297	-0.37335	-0.296014	1.89442	1.80126	-0.0212143	0.00244308	-0.373093	-0.154667	-0.034836	1.90726	1.95896	0.0715747	-0.00496239
1.21	-0.278761	-0.0466582	-0.24008	0.980668	0.959385	-0.348511	0.807118	0.141619	-0.256704	-0.786331	0.300404	0.1	0.00542556	0.354424	-0.0916134	-0.157015	-1.94119	0.0290602	0.1	-0.0300777	0.00770135	0.144347	0.138453	-0.625896	-0.39437	-0.271921	1.87538	1.8073	-0.0212143	0.00244308	-0.383126	-0.153391	-0.0280792	1.8403	1.96665	0.0715747	-0.00496239
1.22	-0.280784	-0.0394932	-0.248326	0.976501	0.955006	-0.348955	0.794348	0.140313	-0.221264	-0.853151	0.371225	0.1	0.00542556	0.438575	-0.104222	-0.151872	-2.00956	0.0654075	0.1	-0.0300777	0.000655163	0.136083	0.165162	-0.560496	-0.413598	-0.245707	1.85648	1.81218	-0.0212143	0.00244308	-0.39657	-0.153937	-0.0239927	1.7822	1.96909	0.0715747	-0.00496239
1.23	-0.283168	-0.0312297	-0.253746	0.972096	0.951509	-0.34938	0.775769	0.137763	-0.184351	-0.906125	0.441898	0.1	0.00542556	0.526848	-0.114481	-0.141717	-2.06105	0.0981812	0.1	-0.0300777	-0.00541333	0.125353	0.189001	-0.493554	-0.4297	-0.2191	1.84113	1.81571	-0.0212143	0.00244308	-0.414038	-0.156798	-0.0225189	1.73561	1.96525	0.0715747	-0.00496239
1.24	-0.285855	-0.0221744	-0.255728	0.967773	0.949163	-0.349788	0.750239	0.133222	-0.148898	-0.942053	0.507097	0.1	0.00542556	0.617345	-0.121864	-0.127438	-2.09424	0.126459	0.1	-0.0300777	-0.0099274	0.11262	0.209391	-0.427946	-0.441501	-0.194098	1.83278	1.81815	-0.0212143	0.00244308	-0.435892	-0.162346	-0.023241	1.70239	1.95469	0.0715747	-0.00496239
1.25	-0.288833	-0.012635	-0.254021	0.963855	0.948197	-0.35015	0.717224	0.126193	-0.117189	-0.959694	0.562046	0.1	0.00542556	0.707765	-0.126146	-0.110502	-2.10822	0.149769	0.1	-0.0300777	-0.0124023	0.0984442	0.226216	-0.366503	-0.448155	-0.172588	1.83428	1.82042	-0.0212143	0.00244308	-0.462192	-0.170705	-0.0255593	1.68339	1.93775	0.0715747	-0.00496239
1.26	-0.29204	-0.00296761	-0.248763	0.960598	0.948707	-0.350422	0.676645	0.116597	-0.0906533	-0.959391	0.60259	0.1	0.00542556	0.79553	-0.127474	-0.0927428	-2.10267	0.168182	0.1	-0.0300777	-0.0125786	0.0834508	0.239705	-0.311558	-0.449286	-0.155946	1.84734	1.82396	-0.0212143	0.00244308	-0.492719	-0.181652	-0.0289528	1.67836	1.91584	0.0715747	-0.00496239
1.27	-0.295323	0.00640267	-0.240407	0.958194	0.950711	-0.35057	0.628758	0.104802	-0.0699077	-0.942648	0.625237	0.1	0.00542556	0.877988	-0.126333	-0.0760534	-2.0779	0.182279	0.1	-0.0300777	-0.0104759	0.0682931	0.250281	-0.264647	-0.445033	-0.144761	1.87231	1.83057	-0.0212143	0.00244308	-0.527039	-0.19461	-0.0332032	1.68603	1.8914	0.0715747	-0.00496239
1.28	-0.298455	0.0149941	-0.229605	0.956783	0.954183	-0.350575	0.574111	0.0915314	-0.0549565	-0.911761	0.627366	0.1	0.00542556	0.952684	-0.123433	-0.0621101	-2.03478	0.193055	0.1	-0.0300777	-0.0063576	0.0536098	0.25844	-0.226467	-0.436023	-0.138778	1.9082	1.84197	-0.0212143	0.00244308	-0.564564	-0.208746	-0.0384741	1.70442	1.86757	0.0715747	-0.00496239
1.29	-0.301205	0.0223157	-0.217081	0.956426	0.959037	-0.350446	0.513559	0.0777095	-0.0454256	-0.869553	0.607503	0.1	0.00542556	1.01762	-0.119556	-0.0521667	-1.97467	0.201752	0.1	-0.0300777	-0.000645006	0.0399847	0.264694	-0.197029	-0.423255	-0.137054	1.95302	1.8594	-0.0212143	0.00244308	-0.604597	-0.223133	-0.045212	1.73111	1.84742	0.0715747	-0.00496239
1.3	-0.303397	0.0279286	-0.203521	0.957096	0.965094	-0.350204	0.4483	0.0643065	-0.0407219	-0.8192	0.565647	0.1	0.00542556	1.07143	-0.115399	-0.0469508	-1.89934	0.209654	0.1	-0.0300777	0.00617832	0.0279197	0.269557	-0.17591	-0.407953	-0.138233	2.0042	1.88323	-0.0212143	0.00244308	-0.646356	-0.236926	-0.0539325	1.76367	1.83307	0.0715747	-0.00496239
1.31	-0.304928	0.0314939	-0.189511	0.958694	0.972092	-0.349887	0.379884	0.0522369	-0.0400699	-0.764136	0.503488	0.1	0.00542556	1.11347	-0.111489	-0.0466745	-1.81081	0.217917	0.1	-0.0300777	0.0136398	0.0178364	0.273547	-0.162481	-0.391431	-0.140856	2.05903	1.91287	-0.0212143	0.00244308	-0.688998	-0.249467	-0.0649975	1.79989	1.82515	0.0715747	-0.00496239
1.32	-0.305737	0.0327799	-0.175532	0.961073	0.979693	-0.349538	0.310193	0.0423004	-0.042495	-0.708043	0.424547	0.1	0.00542556	1.14377	-0.108161	-0.0511349	-1.7113	0.227415	0.1	-0.0300777	0.0213197	0.0100922	0.277178	-0.156042	-0.374971	-0.143605	2.1149	1.94688	-0.0212143	0.00244308	-0.731638	-0.260304	-0.0784907	1.83792	1.82271	0.0715747	-0.00496239
1.33	-0.305793	0.0316225	-0.16199	0.964044	0.987505	-0.349198	0.241381	0.0351496	-0.0467702	-0.654891	0.334132	0.1	0.00542556	1.16294	-0.10559	-0.0598742	-1.6031	0.238657	0.1	-0.0300777	0.0288513	0.00497548	0.280929	-0.155854	-0.359732	-0.145468	2.16944	1.98312	-0.0212143	0.00244308	-0.773368	-0.269132	-0.0942251	1.87631	1.8239	0.0715747	-0.00496239
1.34	-0.305119	0.0279409	-0.149238	0.967408	0.995133	-0.348906	0.175744	0.0313004	-0.0513173	-0.608885	0.238909	0.1	0.00542556	1.172	-0.103842	-0.0723573	-1.48862	0.251772	0.1	-0.0300777	0.0358876	0.00268287	0.28518	-0.161119	-0.346676	-0.145814	2.22055	2.01924	-0.0212143	0.00244308	-0.813283	-0.275704	-0.111847	1.91395	1.82671	0.0715747	-0.00496239
1.35	-0.303787	0.0218172	-0.137567	0.970945	1.00225	-0.348691	0.115582	0.0310877	-0.0543257	-0.574314	0.146196	0.1	0.00542556	1.17226	-0.102885	-0.0880985	-1.3703	0.266566	0.1	-0.0300777	0.0420987	0.00327027	0.290142	-0.170952	-0.336488	-0.144406	2.26632	2.05297	-0.0212143	0.00244308	-0.850506	-0.279758	-0.13096	1.94996	1.82968	0.0715747	-0.00496239
1.36	-0.301901	0.013545	-0.127188	0.974426	1.00865	-0.34856	0.0630502	0.0345784	-0.0540653	-0.555253	0.0630046	0.1	0.00542556	1.16515	-0.102565	-0.106698	-1.25067	0.282601	0.1	-0.0300777	0.0472081	0.00656593	0.295786	-0.18439	-0.329501	-0.14137	2.30507	2.08257	-0.0212143	0.00244308	-0.884215	-0.281003	-0.151205	1.98367	1.83211	0.0715747	-0.00496239
1.37	-0.299608	0.00362669	-0.118213	0.977652	1.01421	-0.348502	0.0199809	0.0415269	-0.0492076	-0.555115	-0.00510436	0.1	0.00542556	1.15217	-0.102603	-0.127823	-1.13235	0.299378	0.1	-0.0300777	0.0510362	0.012105	0.301829	-0.200455	-0.325651	-0.137158	2.3353	2.10705	-0.0212143	0.00244308	-0.913675	-0.279171	-0.172267	2.01447	1.83396	0.0715747	-0.00496239
1.38	-0.297109	-0.00726046	-0.110634	0.98047	1.01888	-0.348495	-0.0122844	0.0513462	-0.0392608	-0.576209	-0.0549864	0.1	0.00542556	1.13477	-0.102613	-0.15108	-1.01806	0.316392	0.1	-0.0300777	0.0535294	0.0191401	0.307772	-0.21827	-0.324468	-0.132484	2.35581	2.12628	-0.0212143	0.00244308	-0.93826	-0.274124	-0.193832	2.04185	1.83546	0.0715747	-0.00496239
1.39	-0.294602	-0.0183166	-0.104315	0.982803	1.02264	-0.34853	-0.03302	0.0631615	-0.0248059	-0.619407	-0.0863428	0.1	0.00542556	1.11427	-0.10218	-0.175903	-0.910551	0.333141	0.1	-0.0300777	0.0547801	0.0267491	0.312995	-0.237161	-0.325149	-0.128251	2.36576	2.14078	-0.0212143	0.00244308	-0.957471	-0.265964	-0.215517	2.06538	1.83686	0.0715747	-0.00496239
1.4	-0.292227	-0.0287544	-0.0990216	0.98465	1.02549	-0.348583	-0.0421721	0.0758899	-0.00745646	-0.684015	-0.101377	0.1	0.00542556	1.09184	-0.100982	-0.201519	-0.812543	0.349104	0.1	-0.0300777	0.0550149	0.0339784	0.316885	-0.256736	-0.326697	-0.125431	2.36475	2.15134	-0.0212143	0.00244308	-0.970936	-0.255104	-0.236823	2.08472	1.83821	0.0715747	-0.00496239
1.41	-0.290065	-0.0379232	-0.0944644	0.986046	1.02744	-0.348642	-0.0403331	0.0883512	0.0104706	-0.767875	-0.103809	0.1	0.00542556	1.06842	-0.0988326	-0.22687	-0.726521	0.363629	0.1	-0.0300777	0.0545446	0.0399933	0.318941	-0.276884	-0.328108	-0.124922	2.35283	2.15858	-0.0212143	0.00244308	-0.978415	-0.24227	-0.257126	2.09966	1.83943	0.0715747	-0.00496239
1.42	-0.288194	-0.0452857	-0.0903544	0.987049	1.0285	-0.348725	-0.0286318	0.0994194	0.0264829	-0.867682	-0.0976616	0.1	0.00542556	1.04472	-0.0957197	-0.250612	-0.654554	0.375897	0.1	-0.0300777	0.053684	0.0442474	0.318856	-0.297696	-0.328571	-0.127382	2.33051	2.16269	-0.0212143	0.00244308	-0.979796	-0.228407	-0.275719	2.11006	1.84032	0.0715747	-0.00496239
